<mxfile host="65bd71144e">
    <diagram id="rDu4jk83XWTEEcnXmGXQ" name="Page-1">
        <mxGraphModel dx="1302" dy="1962" grid="1" gridSize="10" guides="1" tooltips="1" connect="1" arrows="1" fold="1" page="1" pageScale="1" pageWidth="850" pageHeight="1100" math="0" shadow="0">
            <root>
                <mxCell id="0"/>
                <mxCell id="1" parent="0"/>
                <mxCell id="2" value="対戦（開始）" style="rounded=0;whiteSpace=wrap;html=1;strokeColor=#000000;strokeWidth=1;fillColor=none;" vertex="1" parent="1">
                    <mxGeometry x="220.22" y="-660" width="120" height="60" as="geometry"/>
                </mxCell>
                <mxCell id="3" value="盤面" style="rounded=0;whiteSpace=wrap;html=1;strokeColor=#000000;strokeWidth=1;fillColor=none;" vertex="1" parent="1">
                    <mxGeometry x="590" y="-580" width="120" height="60" as="geometry"/>
                </mxCell>
                <mxCell id="4" value="勝敗" style="rounded=0;whiteSpace=wrap;html=1;strokeColor=#000000;strokeWidth=1;fillColor=none;" vertex="1" parent="1">
                    <mxGeometry x="220.22" y="-500" width="120" height="60" as="geometry"/>
                </mxCell>
                <mxCell id="5" value="プレイヤー" style="rounded=0;whiteSpace=wrap;html=1;strokeColor=#000000;strokeWidth=1;fillColor=none;" vertex="1" parent="1">
                    <mxGeometry x="45" y="-660" width="120" height="60" as="geometry"/>
                </mxCell>
                <mxCell id="6" value="石" style="rounded=0;whiteSpace=wrap;html=1;strokeColor=#000000;strokeWidth=1;fillColor=none;" vertex="1" parent="1">
                    <mxGeometry x="450" y="-390" width="120" height="60" as="geometry"/>
                </mxCell>
                <mxCell id="7" value="&lt;div style=&quot;text-align: left&quot;&gt;&lt;span&gt;医師の種類&lt;/span&gt;&lt;/div&gt;&lt;div style=&quot;text-align: left&quot;&gt;&lt;span&gt;・空&lt;/span&gt;&lt;/div&gt;&lt;div style=&quot;text-align: left&quot;&gt;&lt;span&gt;・黒&lt;/span&gt;&lt;/div&gt;&lt;div style=&quot;text-align: left&quot;&gt;&lt;span&gt;・白&lt;/span&gt;&lt;/div&gt;" style="shape=note;whiteSpace=wrap;html=1;backgroundOutline=1;darkOpacity=0.05;strokeColor=#d79b00;strokeWidth=1;fillColor=#ffe6cc;" vertex="1" parent="1">
                    <mxGeometry x="680" y="-350" width="120" height="100" as="geometry"/>
                </mxCell>
                <mxCell id="8" value="" style="endArrow=none;dashed=1;html=1;entryX=0.5;entryY=1;entryDx=0;entryDy=0;entryPerimeter=0;exitX=1;exitY=0.5;exitDx=0;exitDy=0;" edge="1" parent="1" source="6" target="7">
                    <mxGeometry width="50" height="50" relative="1" as="geometry">
                        <mxPoint x="580" y="-510" as="sourcePoint"/>
                        <mxPoint x="620" y="-575" as="targetPoint"/>
                    </mxGeometry>
                </mxCell>
                <mxCell id="9" value="" style="endArrow=none;html=1;edgeStyle=orthogonalEdgeStyle;exitX=1;exitY=0.5;exitDx=0;exitDy=0;entryX=0;entryY=0.5;entryDx=0;entryDy=0;" edge="1" parent="1" source="5" target="2">
                    <mxGeometry relative="1" as="geometry">
                        <mxPoint x="180" y="-630.29" as="sourcePoint"/>
                        <mxPoint x="340" y="-630.29" as="targetPoint"/>
                    </mxGeometry>
                </mxCell>
                <mxCell id="10" value="1" style="edgeLabel;resizable=0;html=1;align=left;verticalAlign=bottom;strokeColor=#000000;strokeWidth=1;fillColor=none;" connectable="0" vertex="1" parent="9">
                    <mxGeometry x="-1" relative="1" as="geometry"/>
                </mxCell>
                <mxCell id="11" value="*" style="edgeLabel;resizable=0;html=1;align=right;verticalAlign=bottom;strokeColor=#000000;strokeWidth=1;fillColor=none;" connectable="0" vertex="1" parent="9">
                    <mxGeometry x="1" relative="1" as="geometry"/>
                </mxCell>
                <mxCell id="12" value="" style="endArrow=none;html=1;edgeStyle=orthogonalEdgeStyle;exitX=0.5;exitY=0;exitDx=0;exitDy=0;entryX=0.5;entryY=1;entryDx=0;entryDy=0;" edge="1" parent="1" source="4" target="2">
                    <mxGeometry relative="1" as="geometry">
                        <mxPoint x="270.22" y="-560" as="sourcePoint"/>
                        <mxPoint x="385.22" y="-560" as="targetPoint"/>
                    </mxGeometry>
                </mxCell>
                <mxCell id="13" value="0..1" style="edgeLabel;resizable=0;html=1;align=left;verticalAlign=bottom;strokeColor=#000000;strokeWidth=1;fillColor=none;" connectable="0" vertex="1" parent="12">
                    <mxGeometry x="-1" relative="1" as="geometry"/>
                </mxCell>
                <mxCell id="14" value="1" style="edgeLabel;resizable=0;html=1;align=right;verticalAlign=bottom;strokeColor=#000000;strokeWidth=1;fillColor=none;" connectable="0" vertex="1" parent="12">
                    <mxGeometry x="1" relative="1" as="geometry"/>
                </mxCell>
                <mxCell id="15" value="" style="endArrow=none;html=1;edgeStyle=orthogonalEdgeStyle;exitX=1;exitY=0.5;exitDx=0;exitDy=0;entryX=0;entryY=0.5;entryDx=0;entryDy=0;" edge="1" parent="1" source="2" target="18">
                    <mxGeometry relative="1" as="geometry">
                        <mxPoint x="405" y="-630" as="sourcePoint"/>
                        <mxPoint x="500" y="-630" as="targetPoint"/>
                    </mxGeometry>
                </mxCell>
                <mxCell id="16" value="1" style="edgeLabel;resizable=0;html=1;align=left;verticalAlign=bottom;strokeColor=#000000;strokeWidth=1;fillColor=none;" connectable="0" vertex="1" parent="15">
                    <mxGeometry x="-1" relative="1" as="geometry"/>
                </mxCell>
                <mxCell id="17" value="*" style="edgeLabel;resizable=0;html=1;align=right;verticalAlign=bottom;strokeColor=#000000;strokeWidth=1;fillColor=none;" connectable="0" vertex="1" parent="15">
                    <mxGeometry x="1" relative="1" as="geometry"/>
                </mxCell>
                <mxCell id="18" value="ターン" style="rounded=0;whiteSpace=wrap;html=1;strokeColor=#000000;strokeWidth=1;fillColor=none;" vertex="1" parent="1">
                    <mxGeometry x="420" y="-660" width="120" height="60" as="geometry"/>
                </mxCell>
                <mxCell id="19" value="" style="endArrow=none;html=1;edgeStyle=orthogonalEdgeStyle;exitX=1;exitY=0.5;exitDx=0;exitDy=0;entryX=0;entryY=0.5;entryDx=0;entryDy=0;" edge="1" parent="1" source="18" target="3">
                    <mxGeometry relative="1" as="geometry">
                        <mxPoint x="600" y="-630.43" as="sourcePoint"/>
                        <mxPoint x="680" y="-630.43" as="targetPoint"/>
                    </mxGeometry>
                </mxCell>
                <mxCell id="20" value="1" style="edgeLabel;resizable=0;html=1;align=left;verticalAlign=bottom;strokeColor=#000000;strokeWidth=1;fillColor=none;" connectable="0" vertex="1" parent="19">
                    <mxGeometry x="-1" relative="1" as="geometry"/>
                </mxCell>
                <mxCell id="21" value="1" style="edgeLabel;resizable=0;html=1;align=right;verticalAlign=bottom;strokeColor=#000000;strokeWidth=1;fillColor=none;" connectable="0" vertex="1" parent="19">
                    <mxGeometry x="1" relative="1" as="geometry"/>
                </mxCell>
                <mxCell id="22" value="マス目" style="rounded=0;whiteSpace=wrap;html=1;strokeColor=#000000;strokeWidth=1;fillColor=none;" vertex="1" parent="1">
                    <mxGeometry x="680" y="-460" width="120" height="60" as="geometry"/>
                </mxCell>
                <mxCell id="23" value="" style="endArrow=none;html=1;edgeStyle=orthogonalEdgeStyle;exitX=0.5;exitY=1;exitDx=0;exitDy=0;entryX=0.5;entryY=0;entryDx=0;entryDy=0;" edge="1" parent="1" source="3" target="22">
                    <mxGeometry relative="1" as="geometry">
                        <mxPoint x="590" y="-460" as="sourcePoint"/>
                        <mxPoint x="640" y="-380" as="targetPoint"/>
                    </mxGeometry>
                </mxCell>
                <mxCell id="24" value="1" style="edgeLabel;resizable=0;html=1;align=left;verticalAlign=bottom;strokeColor=#000000;strokeWidth=1;fillColor=none;" connectable="0" vertex="1" parent="23">
                    <mxGeometry x="-1" relative="1" as="geometry"/>
                </mxCell>
                <mxCell id="25" value="*" style="edgeLabel;resizable=0;html=1;align=right;verticalAlign=bottom;strokeColor=#000000;strokeWidth=1;fillColor=none;" connectable="0" vertex="1" parent="23">
                    <mxGeometry x="1" relative="1" as="geometry"/>
                </mxCell>
                <mxCell id="26" value="" style="endArrow=none;html=1;edgeStyle=orthogonalEdgeStyle;exitX=0;exitY=0.5;exitDx=0;exitDy=0;entryX=0.5;entryY=0;entryDx=0;entryDy=0;" edge="1" parent="1" source="22" target="6">
                    <mxGeometry relative="1" as="geometry">
                        <mxPoint x="640" y="-339.95" as="sourcePoint"/>
                        <mxPoint x="730" y="-279.95" as="targetPoint"/>
                    </mxGeometry>
                </mxCell>
                <mxCell id="27" value="1" style="edgeLabel;resizable=0;html=1;align=left;verticalAlign=bottom;strokeColor=#000000;strokeWidth=1;fillColor=none;" connectable="0" vertex="1" parent="26">
                    <mxGeometry x="-1" relative="1" as="geometry"/>
                </mxCell>
                <mxCell id="28" value="1" style="edgeLabel;resizable=0;html=1;align=right;verticalAlign=bottom;strokeColor=#000000;strokeWidth=1;fillColor=none;" connectable="0" vertex="1" parent="26">
                    <mxGeometry x="1" relative="1" as="geometry"/>
                </mxCell>
                <mxCell id="29" value="手" style="rounded=0;whiteSpace=wrap;html=1;strokeColor=#000000;strokeWidth=1;fillColor=none;" vertex="1" parent="1">
                    <mxGeometry x="580" y="-780" width="120" height="60" as="geometry"/>
                </mxCell>
                <mxCell id="30" value="" style="endArrow=none;html=1;edgeStyle=orthogonalEdgeStyle;exitX=0.5;exitY=0;exitDx=0;exitDy=0;entryX=0;entryY=0.5;entryDx=0;entryDy=0;" edge="1" parent="1" source="18" target="29">
                    <mxGeometry relative="1" as="geometry">
                        <mxPoint x="490" y="-680" as="sourcePoint"/>
                        <mxPoint x="540" y="-600" as="targetPoint"/>
                    </mxGeometry>
                </mxCell>
                <mxCell id="31" value="1" style="edgeLabel;resizable=0;html=1;align=left;verticalAlign=bottom;strokeColor=#000000;strokeWidth=1;fillColor=none;" connectable="0" vertex="1" parent="30">
                    <mxGeometry x="-1" relative="1" as="geometry"/>
                </mxCell>
                <mxCell id="32" value="1" style="edgeLabel;resizable=0;html=1;align=right;verticalAlign=bottom;strokeColor=#000000;strokeWidth=1;fillColor=none;" connectable="0" vertex="1" parent="30">
                    <mxGeometry x="1" relative="1" as="geometry"/>
                </mxCell>
            </root>
        </mxGraphModel>
    </diagram>
</mxfile>